<svg width="180" height="180" viewBox="0 0 180 180" fill="none" xmlns="http://www.w3.org/2000/svg">
  <rect width="180" height="180" rx="38" fill="#d97706" />
  <g transform="translate(42 54) scale(4)" stroke="#ffffff" stroke-width="2.6" stroke-linecap="round" stroke-linejoin="round">
    <path d="M19 17h2c.6 0 1-.4 1-1v-3c0-.9-.7-1.7-1.5-1.9C18.7 10.6 16 10 12 10s-6.7.6-8.5 1.1C2.7 11.3 2 12.1 2 13v3c0 .6.4 1 1 1h2" />
    <path d="M9 17h6" />
    <path d="M6 10l2-4h8l2 4" />
    <circle cx="7" cy="17" r="2" />
    <circle cx="17" cy="17" r="2" />
  </g>
</svg>
